<svg width="109" height="100" viewBox="0 0 109 100" fill="none" xmlns="http://www.w3.org/2000/svg">
<rect width="100" height="100" rx="10" fill="white"/>
<path d="M49.799 49.3219L61.2694 41.23H75.398L70.9798 29.092H60.4602V21H76.6441L81.0624 33.138H96.8741V45.2759H85.4806L91.3715 61.468C95.8414 61.6101 100.103 63.3923 103.343 66.4749C106.583 69.5574 108.575 73.7246 108.939 78.1818C109.304 82.639 108.015 87.0745 105.319 90.6425C102.623 94.2105 98.7078 96.6613 94.3204 97.5278C89.933 98.3942 85.3802 97.6156 81.5301 95.3404C77.68 93.0651 74.802 89.4525 73.4448 85.1913C72.0875 80.9301 72.3461 76.3185 74.1711 72.2357C75.9961 68.1529 79.26 64.8846 83.3403 63.054L78.3394 49.3219H74.5079L68.1071 73.0719L56.2726 77.3971C56.6997 80.8048 56.1543 84.2638 54.6994 87.3747C53.2444 90.4857 50.9392 93.1217 48.05 94.9784C45.1608 96.8351 41.8054 97.8367 38.3711 97.8677C34.9369 97.8986 31.5639 96.9577 28.6417 95.1534C25.7195 93.3491 23.3672 90.7551 21.8564 87.6709C20.3455 84.5867 19.7379 81.138 20.1035 77.7232C20.4691 74.3083 21.7931 71.0665 23.9226 68.3721C26.0521 65.6776 28.9003 63.6404 32.1382 62.4957V57.4139H24.0463V49.3219H49.799ZM38.2072 89.7818C40.8899 89.7818 43.4627 88.7162 45.3596 86.8192C47.2565 84.9223 48.3222 82.3495 48.3222 79.6669C48.3222 76.9842 47.2565 74.4114 45.3596 72.5145C43.4627 70.6176 40.8899 69.5519 38.2072 69.5519C35.5246 69.5519 32.9518 70.6176 31.0549 72.5145C29.1579 74.4114 28.0922 76.9842 28.0922 79.6669C28.0922 82.3495 29.1579 84.9223 31.0549 86.8192C32.9518 88.7162 35.5246 89.7818 38.2072 89.7818ZM90.8051 89.7818C93.4878 89.7818 96.0605 88.7162 97.9575 86.8192C99.8544 84.9223 100.92 82.3495 100.92 79.6669C100.92 76.9842 99.8544 74.4114 97.9575 72.5145C96.0605 70.6176 93.4878 69.5519 90.8051 69.5519C88.1224 69.5519 85.5497 70.6176 83.6527 72.5145C81.7558 74.4114 80.6901 76.9842 80.6901 79.6669C80.6901 82.3495 81.7558 84.9223 83.6527 86.8192C85.5497 88.7162 88.1224 89.7818 90.8051 89.7818Z" fill="#4ECB71"/>
</svg>
