<svg width="100" height="100" viewBox="0 0 100 100" fill="none" xmlns="http://www.w3.org/2000/svg">
<rect width="100" height="100" rx="10" fill="white"/>
<path fill-rule="evenodd" clip-rule="evenodd" d="M64.6139 18C66.7028 18.0001 68.7504 18.5817 70.5274 19.6798C72.3044 20.778 73.7405 22.3491 74.675 24.2174L79.8724 34.6084C80.7873 34.2334 81.6873 33.8284 82.5723 33.3934C83.4624 32.9489 84.4927 32.8761 85.4364 33.1912C86.3802 33.5062 87.1601 34.1833 87.6047 35.0734C88.0493 35.9635 88.122 36.9938 87.807 37.9375C87.4919 38.8813 86.8148 39.6612 85.9247 40.1058C85.0234 40.507 84.1171 40.897 83.206 41.2758L86.8097 48.4869C87.5919 50.0504 87.9989 51.7747 87.9984 53.523V62.9991C88.0008 64.5822 87.6678 66.1479 87.0215 67.5931C86.3752 69.0383 85.4301 70.3302 84.2485 71.3839V76.1238C84.2485 77.6156 83.6559 79.0463 82.601 80.1012C81.5462 81.156 80.1154 81.7487 78.6236 81.7487C77.1318 81.7487 75.7011 81.156 74.6462 80.1012C73.5914 79.0463 72.9987 77.6156 72.9987 76.1238V74.2488H27.9997V76.1238C27.9997 77.6156 27.4071 79.0463 26.3522 80.1012C25.2973 81.156 23.8666 81.7487 22.3748 81.7487C20.883 81.7487 19.4523 81.156 18.3974 80.1012C17.3425 79.0463 16.7499 77.6156 16.7499 76.1238V71.3839C14.4475 69.3214 13 66.329 13 62.9991V53.5193C13.0007 51.7735 13.4077 50.0519 14.1887 48.4906L17.7624 41.3358C16.8587 40.9533 15.9624 40.5483 15.0812 40.1095C14.1956 39.6592 13.5224 38.8789 13.2067 37.9368C12.8911 36.9948 12.9582 35.9664 13.3937 35.0734C13.6137 34.6325 13.9184 34.2393 14.2904 33.9162C14.6624 33.5932 15.0944 33.3466 15.5618 33.1906C16.0292 33.0345 16.5227 32.9722 17.0142 33.007C17.5056 33.0418 17.9854 33.1731 18.4261 33.3934C19.3111 33.8322 20.2148 34.2334 21.1261 34.6084L26.3235 24.2211C27.2574 22.3522 28.6933 20.7802 30.4703 19.6814C32.2473 18.5826 34.2952 18.0004 36.3845 18H64.6139ZM33.6246 51.7493C32.1328 51.7493 30.702 52.3419 29.6472 53.3968C28.5923 54.4517 27.9997 55.8824 27.9997 57.3742C27.9997 58.866 28.5923 60.2967 29.6472 61.3516C30.702 62.4064 32.1328 62.9991 33.6246 62.9991C35.1164 62.9991 36.5471 62.4064 37.602 61.3516C38.6568 60.2967 39.2495 58.866 39.2495 57.3742C39.2495 55.8824 38.6568 54.4517 37.602 53.3968C36.5471 52.3419 35.1164 51.7493 33.6246 51.7493ZM67.3739 51.7493C65.8821 51.7493 64.4513 52.3419 63.3965 53.3968C62.3416 54.4517 61.749 55.8824 61.749 57.3742C61.749 58.866 62.3416 60.2967 63.3965 61.3516C64.4513 62.4064 65.8821 62.9991 67.3739 62.9991C68.8657 62.9991 70.2964 62.4064 71.3513 61.3516C72.4061 60.2967 72.9987 58.866 72.9987 57.3742C72.9987 55.8824 72.4061 54.4517 71.3513 53.3968C70.2964 52.3419 68.8657 51.7493 67.3739 51.7493ZM64.6139 25.4998H36.3845C35.7673 25.4998 35.1596 25.652 34.6154 25.9431C34.0711 26.2342 33.6071 26.6551 33.2646 27.1686L33.0321 27.5736L28.2697 37.0909C34.0746 38.8308 41.8969 40.4995 50.4992 40.4995C58.5316 40.4995 65.8777 39.0446 71.5363 37.4358L72.725 37.0909L67.9664 27.5736C67.6904 27.0216 67.2825 26.5463 66.7788 26.1898C66.2751 25.8333 65.6912 25.6066 65.0789 25.5298L64.6177 25.4998H64.6139Z" fill="#4ECB71"/>
</svg>
