<svg width="26" height="26" viewBox="0 0 26 26" fill="none" xmlns="http://www.w3.org/2000/svg">
<rect width="26" height="26" rx="4" fill="#E3FAFC"/>
<path d="M14.8333 18.5L11.1667 17.2167L8.325 18.3167C8.1213 18.3981 7.93287 18.3753 7.75972 18.2482C7.58657 18.1211 7.5 17.9504 7.5 17.7361V9.18056C7.5 9.04815 7.5383 8.93102 7.61489 8.82917C7.69148 8.72731 7.79578 8.65093 7.92778 8.6L11.1667 7.5L14.8333 8.78333L17.675 7.68333C17.8787 7.60185 18.0671 7.62487 18.2403 7.75239C18.4134 7.87991 18.5 8.05041 18.5 8.26389V16.8194C18.5 16.9519 18.4619 17.069 18.3857 17.1708C18.3095 17.2727 18.205 17.3491 18.0722 17.4L14.8333 18.5ZM14.2222 17.0028V9.85278L11.7778 8.99722V16.1472L14.2222 17.0028Z" fill="#4ECB71"/>
</svg>
