<svg width="26" height="26" viewBox="0 0 26 26" fill="none" xmlns="http://www.w3.org/2000/svg">
<rect width="26" height="26" rx="4" fill="#F8F0FC"/>
<path d="M9.30557 8.19701C9.25132 8.14166 9.1867 8.09755 9.1154 8.06718C9.04411 8.03682 8.96752 8.0208 8.89003 8.02005C8.81254 8.01929 8.73566 8.03382 8.66378 8.06278C8.5919 8.09175 8.52644 8.1346 8.47113 8.18888C7.84546 8.81091 7.34916 9.55068 7.01085 10.3655C6.67254 11.1803 6.49892 12.0541 6.50001 12.9363C6.49899 13.8524 6.68627 14.759 7.05023 15.5997C7.41419 16.4404 7.94705 17.1973 8.61575 17.8235C8.7283 17.9275 8.87697 17.9836 9.03019 17.9798C9.18341 17.976 9.32912 17.9127 9.43638 17.8032C9.69313 17.5464 9.66144 17.1378 9.41444 16.9013C8.87778 16.3899 8.45073 15.7746 8.15922 15.093C7.86772 14.4114 7.71786 13.6776 7.71875 12.9363C7.71875 11.4364 8.32082 10.0763 9.29744 9.08669C9.53307 8.84701 9.55744 8.44888 9.30557 8.19701ZM10.7364 9.62944C10.6294 9.51934 10.4831 9.45614 10.3296 9.45371C10.176 9.45127 10.0278 9.50979 9.91738 9.61644C9.47777 10.0503 9.12884 10.5672 8.89087 11.1372C8.65291 11.7071 8.53066 12.3187 8.53125 12.9363C8.53125 14.3111 9.12438 15.5469 10.0693 16.4016C10.1809 16.5 10.3261 16.5517 10.4748 16.546C10.6235 16.5402 10.7643 16.4775 10.868 16.3708C11.1345 16.1043 11.0849 15.685 10.8347 15.4494C10.4917 15.1269 10.2184 14.7375 10.0318 14.3053C9.84528 13.873 9.74935 13.4071 9.75 12.9363C9.75 12.0019 10.1213 11.1537 10.725 10.5313C10.9574 10.2924 10.9956 9.88782 10.7364 9.62944ZM15.2636 9.62863C15.3706 9.51853 15.5169 9.45533 15.6704 9.45289C15.824 9.45046 15.9722 9.50898 16.0826 9.61563C16.5223 10.0496 16.8713 10.5666 17.1093 11.1367C17.3473 11.7068 17.4694 12.3185 17.4687 12.9363C17.4687 14.3111 16.8756 15.5469 15.9307 16.4016C15.8191 16.5 15.6739 16.5517 15.5252 16.546C15.3765 16.5402 15.2357 16.4775 15.132 16.3708C14.8655 16.1043 14.9151 15.685 15.1653 15.4494C15.5083 15.1269 15.7816 14.7375 15.9682 14.3053C16.1547 13.873 16.2506 13.4071 16.25 12.9363C16.25 12.0019 15.8787 11.1537 15.275 10.5313C15.0426 10.2924 15.0044 9.887 15.2636 9.62863ZM16.6944 8.19701C16.7487 8.14166 16.8133 8.09755 16.8846 8.06718C16.9559 8.03682 17.0325 8.0208 17.11 8.02005C17.1875 8.01929 17.2643 8.03382 17.3362 8.06278C17.4081 8.09175 17.4736 8.1346 17.5289 8.18888C18.1545 8.81091 18.6508 9.55068 18.9892 10.3655C19.3275 11.1803 19.5011 12.0541 19.5 12.9363C19.501 13.8524 19.3137 14.759 18.9498 15.5997C18.5858 16.4404 18.0529 17.1973 17.3842 17.8235C17.2717 17.9275 17.123 17.9836 16.9698 17.9798C16.8166 17.976 16.6709 17.9127 16.5636 17.8032C16.3069 17.5464 16.3386 17.1378 16.5864 16.9013C17.1229 16.3898 17.5498 15.7745 17.8411 15.0929C18.1325 14.4113 18.2822 13.6776 18.2812 12.9363C18.2812 11.4364 17.6792 10.0763 16.7026 9.08669C16.4669 8.84701 16.4426 8.44888 16.6944 8.19701ZM13 11.7176C12.6768 11.7176 12.3668 11.846 12.1382 12.0745C11.9097 12.3031 11.7813 12.6131 11.7813 12.9363C11.7813 13.2595 11.9097 13.5695 12.1382 13.7981C12.3668 14.0267 12.6768 14.1551 13 14.1551C13.3232 14.1551 13.6332 14.0267 13.8618 13.7981C14.0903 13.5695 14.2187 13.2595 14.2187 12.9363C14.2187 12.6131 14.0903 12.3031 13.8618 12.0745C13.6332 11.846 13.3232 11.7176 13 11.7176Z" fill="#F24E1E"/>
</svg>
