<svg width="11" height="13" viewBox="0 0 11 13" fill="none" xmlns="http://www.w3.org/2000/svg">
<path d="M10.3578 8.12517C10.7808 7.32619 11.0014 6.43467 11 5.52954C11 2.47561 8.53761 0 5.5 0C2.46239 0 8.06806e-06 2.47561 8.06806e-06 5.52954C-0.00221834 6.83395 0.456409 8.09676 1.29412 9.09284L1.30059 9.10097C1.30286 9.10292 1.3048 9.10553 1.30642 9.10748H1.29412L4.55788 12.5911C4.67887 12.7202 4.82484 12.8231 4.98683 12.8934C5.14882 12.9637 5.3234 13 5.49984 13C5.67628 13 5.85086 12.9637 6.01285 12.8934C6.17483 12.8231 6.3208 12.7202 6.44179 12.5911L9.70588 9.10748H9.69358L9.69876 9.1013L9.69941 9.10065C9.7227 9.07267 9.74599 9.0447 9.76896 9.01608C9.99337 8.73879 10.1906 8.44065 10.3578 8.12517ZM5.50162 7.64345C4.98679 7.64345 4.49304 7.43784 4.129 7.07184C3.76496 6.70584 3.56044 6.20945 3.56044 5.69185C3.56044 5.17425 3.76496 4.67785 4.129 4.31186C4.49304 3.94586 4.98679 3.74025 5.50162 3.74025C6.01645 3.74025 6.51019 3.94586 6.87423 4.31186C7.23828 4.67785 7.44279 5.17425 7.44279 5.69185C7.44279 6.20945 7.23828 6.70584 6.87423 7.07184C6.51019 7.43784 6.01645 7.64345 5.50162 7.64345Z" fill="#4ECB71"/>
</svg>
