<svg width="26" height="26" viewBox="0 0 26 26" fill="none" xmlns="http://www.w3.org/2000/svg">
<rect width="26" height="26" rx="4" fill="#F3F0FF"/>
<path d="M9.66667 7.99999H8.33333C7.97971 7.99999 7.64057 8.14047 7.39052 8.39051C7.14048 8.64056 7 8.9797 7 9.33332V17.3333C7 17.6869 7.14048 18.0261 7.39052 18.2761C7.64057 18.5262 7.97971 18.6667 8.33333 18.6667H12.1313M9.66667 7.99999C9.66667 7.64637 9.80714 7.30723 10.0572 7.05718C10.3072 6.80713 10.6464 6.66666 11 6.66666H12.3333C12.687 6.66666 13.0261 6.80713 13.2761 7.05718C13.5262 7.30723 13.6667 7.64637 13.6667 7.99999M9.66667 7.99999C9.66667 8.35361 9.80714 8.69275 10.0572 8.9428C10.3072 9.19285 10.6464 9.33332 11 9.33332H12.3333C12.687 9.33332 13.0261 9.19285 13.2761 8.9428C13.5262 8.69275 13.6667 8.35361 13.6667 7.99999M16.3333 14V16.6667H19M16.3333 14C17.0406 14 17.7189 14.2809 18.219 14.781C18.719 15.2811 19 15.9594 19 16.6667M16.3333 14C15.6261 14 14.9478 14.2809 14.4477 14.781C13.9476 15.2811 13.6667 15.9594 13.6667 16.6667C13.6667 17.3739 13.9476 18.0522 14.4477 18.5523C14.9478 19.0524 15.6261 19.3333 16.3333 19.3333C17.0406 19.3333 17.7189 19.0524 18.219 18.5523C18.719 18.0522 19 17.3739 19 16.6667M16.3333 12V9.33332C16.3333 8.9797 16.1929 8.64056 15.9428 8.39051C15.6928 8.14047 15.3536 7.99999 15 7.99999H13.6667M9.66667 12H12.3333M9.66667 14.6667H11.6667" stroke="#9747FF" stroke-width="1.33333" stroke-linecap="round" stroke-linejoin="round"/>
</svg>
