<svg width="26" height="26" viewBox="0 0 26 26" fill="none" xmlns="http://www.w3.org/2000/svg">
<rect width="26" height="26" rx="4" fill="#EBFBEE"/>
<path d="M19.5 19.5L16.9722 16.9722M16.6111 11.5556C16.6111 12.2195 16.4803 12.8769 16.2263 13.4902C15.9722 14.1036 15.5998 14.6609 15.1304 15.1304C14.6609 15.5998 14.1036 15.9722 13.4902 16.2263C12.8769 16.4803 12.2195 16.6111 11.5556 16.6111C10.8917 16.6111 10.2342 16.4803 9.62088 16.2263C9.00751 15.9722 8.45019 15.5998 7.98074 15.1304C7.51129 14.6609 7.1389 14.1036 6.88483 13.4902C6.63077 12.8769 6.5 12.2195 6.5 11.5556C6.5 10.2147 7.03264 8.92884 7.98074 7.98074C8.92884 7.03264 10.2147 6.5 11.5556 6.5C12.8964 6.5 14.1823 7.03264 15.1304 7.98074C16.0785 8.92884 16.6111 10.2147 16.6111 11.5556Z" stroke="#0FA958" stroke-width="1.44444" stroke-linecap="round"/>
</svg>
