<svg width="100" height="100" viewBox="0 0 100 100" fill="none" xmlns="http://www.w3.org/2000/svg">
<rect width="100" height="100" rx="10" fill="white"/>
<path d="M60.125 24.8333C61.8268 24.8333 63.4589 25.5094 64.6623 26.7127C65.8656 27.9161 66.5417 29.5482 66.5417 31.25V34.4583H71.4183C72.3801 34.4585 73.3295 34.6748 74.1964 35.0913C75.0633 35.5078 75.8254 36.1138 76.4265 36.8646L81.1749 42.8032C82.0863 43.9412 82.5831 45.3556 82.5833 46.8136V60.125C82.5833 61.8268 81.9073 63.4589 80.7039 64.6623C79.5006 65.8656 77.8685 66.5417 76.1667 66.5417H72.9583C72.9583 69.0944 71.9443 71.5425 70.1392 73.3476C68.3342 75.1526 65.886 76.1667 63.3333 76.1667C60.7806 76.1667 58.3325 75.1526 56.5274 73.3476C54.7224 71.5425 53.7083 69.0944 53.7083 66.5417H44.0833C44.0833 67.8056 43.8344 69.0572 43.3507 70.225C42.867 71.3928 42.158 72.4538 41.2642 73.3476C40.3705 74.2413 39.3094 74.9503 38.1417 75.434C36.9739 75.9177 35.7223 76.1667 34.4583 76.1667C33.1944 76.1667 31.9428 75.9177 30.775 75.434C29.6072 74.9503 28.5462 74.2413 27.6524 73.3476C26.7587 72.4538 26.0497 71.3928 25.566 70.225C25.0823 69.0572 24.8333 67.8056 24.8333 66.5417C23.1315 66.5417 21.4994 65.8656 20.2961 64.6623C19.0927 63.4589 18.4167 61.8268 18.4167 60.125V31.25C18.4167 29.5482 19.0927 27.9161 20.2961 26.7127C21.4994 25.5094 23.1315 24.8333 24.8333 24.8333H60.125ZM34.4583 63.3333C33.6074 63.3333 32.7914 63.6713 32.1897 64.273C31.588 64.8747 31.25 65.6908 31.25 66.5417C31.25 67.3926 31.588 68.2086 32.1897 68.8103C32.7914 69.412 33.6074 69.75 34.4583 69.75C35.3092 69.75 36.1253 69.412 36.727 68.8103C37.3286 68.2086 37.6667 67.3926 37.6667 66.5417C37.6667 65.6908 37.3286 64.8747 36.727 64.273C36.1253 63.6713 35.3092 63.3333 34.4583 63.3333ZM63.3333 63.3333C62.4824 63.3333 61.6664 63.6713 61.0647 64.273C60.463 64.8747 60.125 65.6908 60.125 66.5417C60.125 67.3926 60.463 68.2086 61.0647 68.8103C61.6664 69.412 62.4824 69.75 63.3333 69.75C64.1842 69.75 65.0003 69.412 65.602 68.8103C66.2036 68.2086 66.5417 67.3926 66.5417 66.5417C66.5417 65.6908 66.2036 64.8747 65.602 64.273C65.0003 63.6713 64.1842 63.3333 63.3333 63.3333ZM71.4183 40.875H66.5417V53.7083H76.1667V46.8104L71.4183 40.875Z" fill="#4ECB71"/>
</svg>
